<?xml version="1.0" standalone="no"?>
<!DOCTYPE svg PUBLIC "-//W3C//DTD SVG 20010904//EN"
 "http://www.w3.org/TR/2001/REC-SVG-20010904/DTD/svg10.dtd">
<svg version="1.0" xmlns="http://www.w3.org/2000/svg"
 width="512.000000pt" height="512.000000pt" viewBox="0 0 512.000000 512.000000"
 preserveAspectRatio="xMidYMid meet">
<metadata>
Created by potrace 1.11, written by Peter Selinger 2001-2013
</metadata>
<g transform="translate(0.000000,512.000000) scale(0.100000,-0.100000)"
fill="#000000" stroke="none">
<path d="M56 5104 c-22 -21 -20 -54 9 -159 14 -49 52 -198 85 -330 98 -402
162 -588 277 -805 153 -290 369 -552 580 -703 137 -98 350 -197 422 -197 9 0
35 26 58 58 156 219 391 413 667 550 l118 59 -49 31 c-50 32 -385 196 -545
267 -48 22 -86 40 -85 41 5 4 420 -85 484 -104 95 -29 182 -69 278 -127 77
-47 80 -48 119 -36 226 65 418 106 636 136 63 8 130 18 148 21 l33 5 -53 77
c-70 102 -288 319 -416 412 -272 199 -574 347 -856 421 -206 53 -404 82 -841
124 -148 14 -317 34 -375 45 -179 33 -368 96 -547 181 -113 54 -124 56 -147
33z"/>
<path d="M4908 4019 c-242 -123 -550 -209 -948 -263 -63 -9 -257 -32 -430 -51
-371 -42 -578 -73 -767 -115 -468 -105 -843 -311 -1090 -599 -307 -359 -545
-997 -630 -1691 -25 -202 -24 -777 1 -959 33 -247 70 -341 130 -341 12 0 33
11 46 24 l22 25 -21 88 c-35 145 -43 220 -43 388 -1 401 122 833 323 1136 78
117 259 299 389 391 181 128 431 243 738 337 157 48 192 53 192 26 0 -17 -13
-26 -110 -70 -194 -87 -427 -209 -510 -265 -252 -173 -463 -417 -590 -681
-117 -247 -119 -439 -2 -439 18 0 100 22 180 49 223 75 316 92 951 176 361 48
582 101 781 189 449 200 826 565 1079 1047 133 253 200 449 326 951 48 189
102 398 121 465 39 142 42 175 14 203 -29 29 -65 24 -152 -21z"/>
</g>
</svg>
